<mxfile host="Electron" modified="2024-06-05T08:47:08.808Z" agent="Mozilla/5.0 (Windows NT 10.0; Win64; x64) AppleWebKit/537.36 (KHTML, like Gecko) draw.io/24.4.8 Chrome/124.0.6367.207 Electron/30.0.6 Safari/537.36" etag="Vmm1AQH7LiPtTuOgmq9r" version="24.4.8" type="device" pages="2">
  <diagram id="C5RBs43oDa-KdzZeNtuy" name="Page-1">
    <mxGraphModel dx="926" dy="1865" grid="0" gridSize="10" guides="1" tooltips="1" connect="1" arrows="1" fold="1" page="1" pageScale="1" pageWidth="827" pageHeight="1169" math="0" shadow="0">
      <root>
        <mxCell id="WIyWlLk6GJQsqaUBKTNV-0" />
        <mxCell id="WIyWlLk6GJQsqaUBKTNV-1" parent="WIyWlLk6GJQsqaUBKTNV-0" />
        <mxCell id="API8VcU7Uppn6lHj1kgu-10" style="edgeStyle=orthogonalEdgeStyle;rounded=0;orthogonalLoop=1;jettySize=auto;html=1;exitX=0.5;exitY=1;exitDx=0;exitDy=0;entryX=0.5;entryY=0;entryDx=0;entryDy=0;endArrow=none;endFill=0;" parent="WIyWlLk6GJQsqaUBKTNV-1" source="WIyWlLk6GJQsqaUBKTNV-11" target="API8VcU7Uppn6lHj1kgu-6" edge="1">
          <mxGeometry relative="1" as="geometry" />
        </mxCell>
        <mxCell id="WIyWlLk6GJQsqaUBKTNV-11" value="Начало" style="rounded=1;whiteSpace=wrap;html=1;fontSize=12;glass=0;strokeWidth=1;shadow=0;arcSize=50;" parent="WIyWlLk6GJQsqaUBKTNV-1" vertex="1">
          <mxGeometry x="220" y="-1075" width="210" height="40" as="geometry" />
        </mxCell>
        <mxCell id="API8VcU7Uppn6lHj1kgu-0" value="Конец" style="rounded=1;whiteSpace=wrap;html=1;fontSize=12;glass=0;strokeWidth=1;shadow=0;arcSize=50;" parent="WIyWlLk6GJQsqaUBKTNV-1" vertex="1">
          <mxGeometry x="220" y="-540" width="210" height="40" as="geometry" />
        </mxCell>
        <mxCell id="API8VcU7Uppn6lHj1kgu-3" value="" style="group" parent="WIyWlLk6GJQsqaUBKTNV-1" vertex="1" connectable="0">
          <mxGeometry x="480" y="-1120" width="280" height="130" as="geometry" />
        </mxCell>
        <mxCell id="API8VcU7Uppn6lHj1kgu-1" value="" style="strokeWidth=2;html=1;shape=mxgraph.flowchart.annotation_2;align=left;labelPosition=right;pointerEvents=1;" parent="API8VcU7Uppn6lHj1kgu-3" vertex="1">
          <mxGeometry width="50" height="130" as="geometry" />
        </mxCell>
        <mxCell id="API8VcU7Uppn6lHj1kgu-2" value="Функция обновления статуса ракетки&lt;div&gt;&lt;br&gt;&lt;/div&gt;&lt;div&gt;&lt;i&gt;Вход: &lt;/i&gt;OLD - старая запись в таблице при операции UPDATE,&lt;/div&gt;&lt;div&gt;NEW - новая запись в таблице при операции UPDATE&lt;/div&gt;&lt;div&gt;&lt;br&gt;&lt;/div&gt;&lt;div&gt;&lt;i&gt;Выход: &lt;/i&gt;измененный статус ракетки&lt;/div&gt;" style="text;html=1;align=left;verticalAlign=middle;whiteSpace=wrap;rounded=0;" parent="API8VcU7Uppn6lHj1kgu-3" vertex="1">
          <mxGeometry x="40" y="50" width="240" height="30" as="geometry" />
        </mxCell>
        <mxCell id="API8VcU7Uppn6lHj1kgu-4" style="edgeStyle=orthogonalEdgeStyle;rounded=0;orthogonalLoop=1;jettySize=auto;html=1;exitX=1;exitY=0.5;exitDx=0;exitDy=0;entryX=0;entryY=0.5;entryDx=0;entryDy=0;entryPerimeter=0;endArrow=none;endFill=0;dashed=1;" parent="WIyWlLk6GJQsqaUBKTNV-1" source="WIyWlLk6GJQsqaUBKTNV-11" target="API8VcU7Uppn6lHj1kgu-1" edge="1">
          <mxGeometry relative="1" as="geometry" />
        </mxCell>
        <mxCell id="API8VcU7Uppn6lHj1kgu-11" style="edgeStyle=orthogonalEdgeStyle;rounded=0;orthogonalLoop=1;jettySize=auto;html=1;exitX=1;exitY=0.5;exitDx=0;exitDy=0;endArrow=none;endFill=0;" parent="WIyWlLk6GJQsqaUBKTNV-1" source="API8VcU7Uppn6lHj1kgu-6" target="API8VcU7Uppn6lHj1kgu-7" edge="1">
          <mxGeometry relative="1" as="geometry" />
        </mxCell>
        <mxCell id="API8VcU7Uppn6lHj1kgu-16" value="&lt;font style=&quot;font-size: 13px;&quot;&gt;Да&lt;/font&gt;" style="edgeLabel;html=1;align=center;verticalAlign=middle;resizable=0;points=[];" parent="API8VcU7Uppn6lHj1kgu-11" vertex="1" connectable="0">
          <mxGeometry x="-0.7277" y="1" relative="1" as="geometry">
            <mxPoint x="4" y="-9" as="offset" />
          </mxGeometry>
        </mxCell>
        <mxCell id="API8VcU7Uppn6lHj1kgu-12" style="edgeStyle=orthogonalEdgeStyle;rounded=0;orthogonalLoop=1;jettySize=auto;html=1;exitX=0;exitY=0.5;exitDx=0;exitDy=0;entryX=0.5;entryY=0;entryDx=0;entryDy=0;endArrow=classic;endFill=1;" parent="WIyWlLk6GJQsqaUBKTNV-1" source="API8VcU7Uppn6lHj1kgu-6" target="API8VcU7Uppn6lHj1kgu-9" edge="1">
          <mxGeometry relative="1" as="geometry" />
        </mxCell>
        <mxCell id="API8VcU7Uppn6lHj1kgu-6" value="Старое количество&amp;nbsp;&lt;div&gt;ракеток не равно 0,&amp;nbsp;&amp;nbsp;&lt;div&gt;новое равно 0?&lt;/div&gt;&lt;/div&gt;" style="rhombus;whiteSpace=wrap;html=1;shadow=0;fontFamily=Helvetica;fontSize=12;align=center;strokeWidth=1;spacing=6;spacingTop=-4;" parent="WIyWlLk6GJQsqaUBKTNV-1" vertex="1">
          <mxGeometry x="222.5" y="-990" width="205" height="100" as="geometry" />
        </mxCell>
        <mxCell id="API8VcU7Uppn6lHj1kgu-14" style="edgeStyle=orthogonalEdgeStyle;rounded=0;orthogonalLoop=1;jettySize=auto;html=1;exitX=0.5;exitY=1;exitDx=0;exitDy=0;entryX=0.5;entryY=0;entryDx=0;entryDy=0;" parent="WIyWlLk6GJQsqaUBKTNV-1" source="API8VcU7Uppn6lHj1kgu-7" target="API8VcU7Uppn6lHj1kgu-0" edge="1">
          <mxGeometry relative="1" as="geometry">
            <Array as="points">
              <mxPoint x="478" y="-590" />
              <mxPoint x="325" y="-590" />
            </Array>
          </mxGeometry>
        </mxCell>
        <mxCell id="API8VcU7Uppn6lHj1kgu-7" value="Изменить статус ракетки: недоступная" style="rounded=0;whiteSpace=wrap;html=1;" parent="WIyWlLk6GJQsqaUBKTNV-1" vertex="1">
          <mxGeometry x="370" y="-855" width="215" height="60" as="geometry" />
        </mxCell>
        <mxCell id="xjI8PqzmP5FkrGc0pE1w-2" style="edgeStyle=orthogonalEdgeStyle;rounded=0;orthogonalLoop=1;jettySize=auto;html=1;exitX=0.5;exitY=1;exitDx=0;exitDy=0;entryX=0.5;entryY=0;entryDx=0;entryDy=0;" parent="WIyWlLk6GJQsqaUBKTNV-1" source="API8VcU7Uppn6lHj1kgu-8" target="API8VcU7Uppn6lHj1kgu-0" edge="1">
          <mxGeometry relative="1" as="geometry">
            <Array as="points">
              <mxPoint x="325" y="-660" />
              <mxPoint x="170" y="-660" />
              <mxPoint x="170" y="-590" />
              <mxPoint x="325" y="-590" />
            </Array>
          </mxGeometry>
        </mxCell>
        <mxCell id="API8VcU7Uppn6lHj1kgu-8" value="Изменить статус ракетки:&lt;div&gt;&amp;nbsp;доступная&lt;/div&gt;" style="rounded=0;whiteSpace=wrap;html=1;" parent="WIyWlLk6GJQsqaUBKTNV-1" vertex="1">
          <mxGeometry x="217.5" y="-750" width="215" height="60" as="geometry" />
        </mxCell>
        <mxCell id="xjI8PqzmP5FkrGc0pE1w-0" style="edgeStyle=orthogonalEdgeStyle;rounded=0;orthogonalLoop=1;jettySize=auto;html=1;exitX=1;exitY=0.5;exitDx=0;exitDy=0;endArrow=none;endFill=0;" parent="WIyWlLk6GJQsqaUBKTNV-1" source="API8VcU7Uppn6lHj1kgu-9" target="API8VcU7Uppn6lHj1kgu-8" edge="1">
          <mxGeometry relative="1" as="geometry" />
        </mxCell>
        <mxCell id="xjI8PqzmP5FkrGc0pE1w-3" value="Да" style="edgeLabel;html=1;align=center;verticalAlign=middle;resizable=0;points=[];fontSize=12;" parent="xjI8PqzmP5FkrGc0pE1w-0" vertex="1" connectable="0">
          <mxGeometry x="-0.4092" y="-1" relative="1" as="geometry">
            <mxPoint x="-13" y="-14" as="offset" />
          </mxGeometry>
        </mxCell>
        <mxCell id="API8VcU7Uppn6lHj1kgu-9" value="Новое количество&amp;nbsp;&lt;div&gt;ракеток не равно 0,&amp;nbsp;&amp;nbsp;&lt;div&gt;старое равно 0?&lt;/div&gt;&lt;/div&gt;" style="rhombus;whiteSpace=wrap;html=1;shadow=0;fontFamily=Helvetica;fontSize=12;align=center;strokeWidth=1;spacing=6;spacingTop=-4;" parent="WIyWlLk6GJQsqaUBKTNV-1" vertex="1">
          <mxGeometry x="60" y="-875" width="215" height="95" as="geometry" />
        </mxCell>
        <mxCell id="xjI8PqzmP5FkrGc0pE1w-1" style="edgeStyle=orthogonalEdgeStyle;rounded=0;orthogonalLoop=1;jettySize=auto;html=1;exitX=0;exitY=0.5;exitDx=0;exitDy=0;entryX=0.5;entryY=0;entryDx=0;entryDy=0;" parent="WIyWlLk6GJQsqaUBKTNV-1" source="API8VcU7Uppn6lHj1kgu-9" target="API8VcU7Uppn6lHj1kgu-0" edge="1">
          <mxGeometry relative="1" as="geometry">
            <Array as="points">
              <mxPoint x="40" y="-827" />
              <mxPoint x="40" y="-660" />
              <mxPoint x="170" y="-660" />
              <mxPoint x="170" y="-590" />
              <mxPoint x="325" y="-590" />
            </Array>
          </mxGeometry>
        </mxCell>
      </root>
    </mxGraphModel>
  </diagram>
  <diagram id="uD32CcZpfoYIYW_4MbGG" name="Страница — 2">
    <mxGraphModel dx="1158" dy="2039" grid="1" gridSize="10" guides="1" tooltips="1" connect="1" arrows="1" fold="1" page="1" pageScale="1" pageWidth="827" pageHeight="1169" math="0" shadow="0">
      <root>
        <mxCell id="0" />
        <mxCell id="1" parent="0" />
        <mxCell id="wfdNfYZb9NYtO3qOuiAl-3" style="edgeStyle=orthogonalEdgeStyle;rounded=0;orthogonalLoop=1;jettySize=auto;html=1;exitX=0.5;exitY=1;exitDx=0;exitDy=0;endArrow=none;endFill=0;" edge="1" parent="1" source="4urj2nQnUZrrLbcB4bRF-1" target="M1XUUOc5odCa6XEH7LW2-1">
          <mxGeometry relative="1" as="geometry" />
        </mxCell>
        <mxCell id="4urj2nQnUZrrLbcB4bRF-1" value="Начало" style="rounded=1;whiteSpace=wrap;html=1;fontSize=12;glass=0;strokeWidth=1;shadow=0;arcSize=50;" vertex="1" parent="1">
          <mxGeometry x="40" y="-1120" width="160" height="40" as="geometry" />
        </mxCell>
        <mxCell id="wfdNfYZb9NYtO3qOuiAl-4" style="edgeStyle=orthogonalEdgeStyle;rounded=0;orthogonalLoop=1;jettySize=auto;html=1;exitX=0.5;exitY=1;exitDx=0;exitDy=0;strokeColor=default;align=center;verticalAlign=middle;fontFamily=Helvetica;fontSize=11;fontColor=default;labelBackgroundColor=default;endArrow=none;endFill=0;" edge="1" parent="1" source="M1XUUOc5odCa6XEH7LW2-1" target="M1XUUOc5odCa6XEH7LW2-2">
          <mxGeometry relative="1" as="geometry" />
        </mxCell>
        <mxCell id="M1XUUOc5odCa6XEH7LW2-1" value="Поднять тестовую базу данных" style="rounded=0;whiteSpace=wrap;html=1;" vertex="1" parent="1">
          <mxGeometry x="40" y="-1050" width="160" height="60" as="geometry" />
        </mxCell>
        <mxCell id="wfdNfYZb9NYtO3qOuiAl-5" style="edgeStyle=orthogonalEdgeStyle;rounded=0;orthogonalLoop=1;jettySize=auto;html=1;exitX=0.5;exitY=1;exitDx=0;exitDy=0;strokeColor=default;align=center;verticalAlign=middle;fontFamily=Helvetica;fontSize=11;fontColor=default;labelBackgroundColor=default;endArrow=none;endFill=0;" edge="1" parent="1" source="M1XUUOc5odCa6XEH7LW2-2" target="M1XUUOc5odCa6XEH7LW2-3">
          <mxGeometry relative="1" as="geometry" />
        </mxCell>
        <mxCell id="M1XUUOc5odCa6XEH7LW2-2" value="Заполнить базу данных записями" style="rounded=0;whiteSpace=wrap;html=1;" vertex="1" parent="1">
          <mxGeometry x="40" y="-960" width="160" height="60" as="geometry" />
        </mxCell>
        <mxCell id="wfdNfYZb9NYtO3qOuiAl-6" style="edgeStyle=orthogonalEdgeStyle;rounded=0;orthogonalLoop=1;jettySize=auto;html=1;exitX=0.5;exitY=1;exitDx=0;exitDy=0;strokeColor=default;align=center;verticalAlign=middle;fontFamily=Helvetica;fontSize=11;fontColor=default;labelBackgroundColor=default;endArrow=none;endFill=0;" edge="1" parent="1" source="M1XUUOc5odCa6XEH7LW2-3" target="wfdNfYZb9NYtO3qOuiAl-1">
          <mxGeometry relative="1" as="geometry" />
        </mxCell>
        <mxCell id="M1XUUOc5odCa6XEH7LW2-3" value="Выполнить функцию обновления статуса ракетки" style="rounded=0;whiteSpace=wrap;html=1;" vertex="1" parent="1">
          <mxGeometry x="40" y="-870" width="160" height="60" as="geometry" />
        </mxCell>
        <mxCell id="wfdNfYZb9NYtO3qOuiAl-7" style="edgeStyle=orthogonalEdgeStyle;rounded=0;orthogonalLoop=1;jettySize=auto;html=1;exitX=0.5;exitY=1;exitDx=0;exitDy=0;entryX=0.5;entryY=0;entryDx=0;entryDy=0;strokeColor=default;align=center;verticalAlign=middle;fontFamily=Helvetica;fontSize=11;fontColor=default;labelBackgroundColor=default;endArrow=none;endFill=0;" edge="1" parent="1" source="wfdNfYZb9NYtO3qOuiAl-1" target="wfdNfYZb9NYtO3qOuiAl-2">
          <mxGeometry relative="1" as="geometry" />
        </mxCell>
        <mxCell id="wfdNfYZb9NYtO3qOuiAl-1" value="Сравнить обновленные статусы ракеток и ожидаемые" style="rounded=0;whiteSpace=wrap;html=1;" vertex="1" parent="1">
          <mxGeometry x="40" y="-780" width="160" height="60" as="geometry" />
        </mxCell>
        <mxCell id="wfdNfYZb9NYtO3qOuiAl-2" value="Конец" style="rounded=1;whiteSpace=wrap;html=1;fontSize=12;glass=0;strokeWidth=1;shadow=0;arcSize=50;" vertex="1" parent="1">
          <mxGeometry x="40" y="-690" width="160" height="40" as="geometry" />
        </mxCell>
      </root>
    </mxGraphModel>
  </diagram>
</mxfile>
